<svg width="175" height="35" viewBox="0 0 175 35" fill="none" xmlns="http://www.w3.org/2000/svg">
<path d="M8.288 27.72C7.088 27.72 5.972 27.612 4.94 27.396C3.908 27.18 3.044 26.82 2.348 26.316C1.868 25.956 1.496 25.5 1.232 24.948C0.992 24.396 0.872 23.832 0.872 23.256C0.872 22.536 1.076 21.864 1.484 21.24C1.892 20.616 2.54 20.196 3.428 19.98C3.548 19.956 3.656 19.944 3.752 19.944C3.872 19.92 3.98 19.908 4.076 19.908C4.556 19.908 4.976 20.016 5.336 20.232C5.72 20.448 5.984 20.7 6.128 20.988C6.032 21.06 5.9 21.192 5.732 21.384C5.564 21.552 5.456 21.696 5.408 21.816C5.048 22.416 4.868 23.016 4.868 23.616C4.868 24.432 5.18 25.104 5.804 25.632C6.452 26.136 7.292 26.388 8.324 26.388C9.26 26.388 10.136 26.16 10.952 25.704C11.792 25.224 12.464 24.588 12.968 23.796C13.496 23.004 13.76 22.092 13.76 21.06C13.76 20.292 13.58 19.476 13.22 18.612C12.908 17.868 12.476 17.208 11.924 16.632C11.396 16.056 10.892 15.516 10.412 15.012C9.764 14.316 9.14 13.644 8.54 12.996C7.964 12.324 7.484 11.604 7.1 10.836C6.74 10.044 6.56 9.156 6.56 8.172C6.56 7.236 6.752 6.324 7.136 5.436C7.544 4.548 8.12 3.792 8.864 3.168C9.704 2.448 10.664 1.944 11.744 1.656C12.824 1.368 13.952 1.224 15.128 1.224C16.592 1.224 17.744 1.416 18.584 1.8C19.448 2.16 20.06 2.628 20.42 3.204C20.804 3.78 20.996 4.392 20.996 5.04C20.996 5.664 20.852 6.264 20.564 6.84C20.3 7.416 19.928 7.908 19.448 8.316C18.968 8.7 18.44 8.94 17.864 9.036C17.768 9.06 17.672 9.072 17.576 9.072C17.48 9.072 17.372 9.072 17.252 9.072C16.724 9.072 16.256 8.952 15.848 8.712C15.464 8.472 15.272 8.064 15.272 7.488C15.272 7.416 15.272 7.332 15.272 7.236C15.296 7.14 15.32 7.044 15.344 6.948C15.776 6.948 16.22 6.792 16.676 6.48C17.132 6.168 17.432 5.82 17.576 5.436C17.696 5.124 17.756 4.836 17.756 4.572C17.756 3.924 17.456 3.42 16.856 3.06C16.28 2.676 15.596 2.484 14.804 2.484C13.868 2.484 13.028 2.688 12.284 3.096C11.564 3.48 11 3.996 10.592 4.644C10.184 5.268 9.98 5.952 9.98 6.696C9.98 7.44 10.208 8.16 10.664 8.856C11.048 9.408 11.528 9.984 12.104 10.584C12.68 11.16 13.268 11.724 13.868 12.276C14.468 12.804 14.984 13.296 15.416 13.752C16.4 14.712 17.108 15.696 17.54 16.704C17.972 17.688 18.188 18.66 18.188 19.62C18.188 20.724 17.924 21.768 17.396 22.752C16.892 23.712 16.184 24.564 15.272 25.308C14.36 26.052 13.304 26.64 12.104 27.072C10.904 27.504 9.632 27.72 8.288 27.72ZM23.7478 27.36C22.6198 27.36 21.7078 27.156 21.0118 26.748C20.3158 26.316 19.8118 25.752 19.4998 25.056C19.2118 24.336 19.0678 23.568 19.0678 22.752C19.0678 21.936 19.1878 21.108 19.4278 20.268C19.6678 19.428 19.9918 18.636 20.3998 17.892C21.2398 16.38 22.2718 15.132 23.4958 14.148C24.7438 13.164 26.2678 12.672 28.0678 12.672C29.1958 12.672 30.0718 12.96 30.6958 13.536C31.3198 14.112 31.6318 14.784 31.6318 15.552C31.6318 16.272 31.4158 16.932 30.9838 17.532C30.5758 18.132 30.0238 18.432 29.3278 18.432C28.9438 18.432 28.6078 18.324 28.3198 18.108C28.0318 17.892 27.8878 17.556 27.8878 17.1C27.8878 17.028 27.8878 16.956 27.8878 16.884C27.9118 16.788 27.9358 16.692 27.9598 16.596C28.1038 16.572 28.3078 16.536 28.5718 16.488C28.8598 16.416 29.0878 16.248 29.2558 15.984C29.5678 15.552 29.7238 15.12 29.7238 14.688C29.7238 14.424 29.6398 14.208 29.4718 14.04C29.3278 13.848 29.0758 13.752 28.7158 13.752C28.0678 13.752 27.4078 13.992 26.7358 14.472C26.0638 14.928 25.4278 15.54 24.8278 16.308C24.2518 17.076 23.7478 17.916 23.3158 18.828C22.6438 20.292 22.3078 21.636 22.3078 22.86C22.3078 23.748 22.5118 24.48 22.9198 25.056C23.3278 25.608 23.9758 25.884 24.8638 25.884C25.9918 25.884 27.0478 25.5 28.0318 24.732C29.0398 23.94 29.9398 23.028 30.7318 21.996C31.2598 21.324 31.7278 20.64 32.1358 19.944C32.5678 19.248 32.9278 18.612 33.2158 18.036C33.3118 17.868 33.3958 17.784 33.4678 17.784C33.6118 17.784 33.6838 17.988 33.6838 18.396C33.6838 18.588 33.6478 18.816 33.5758 19.08C33.5278 19.32 33.4438 19.548 33.3238 19.764C32.9158 20.436 32.4958 21.108 32.0638 21.78C31.6558 22.452 31.2118 23.088 30.7318 23.688C29.9158 24.744 28.9558 25.62 27.8518 26.316C26.7478 27.012 25.3798 27.36 23.7478 27.36ZM37.9101 27.252C37.1421 27.252 36.5901 26.928 36.2541 26.28C35.9901 25.704 35.8581 25.02 35.8581 24.228C35.8581 23.34 35.9901 22.356 36.2541 21.276C36.5181 20.196 36.8781 19.092 37.3341 17.964C37.5021 17.556 37.7181 17.04 37.9821 16.416C38.2701 15.792 38.6061 15.18 38.9901 14.58C38.6541 14.868 38.2581 15.108 37.8021 15.3C37.3461 15.468 36.9021 15.552 36.4701 15.552C36.1341 15.552 35.8581 15.504 35.6421 15.408C35.4501 15.792 35.1381 16.416 34.7061 17.28C34.2741 18.144 33.6981 19.164 32.9781 20.34C32.9061 20.46 32.8341 20.46 32.7621 20.34C32.7141 20.196 32.6901 20.004 32.6901 19.764C32.6901 19.572 32.7141 19.368 32.7621 19.152C32.8101 18.936 32.8821 18.732 32.9781 18.54C33.2181 18.084 33.4581 17.616 33.6981 17.136C33.9381 16.632 34.1541 16.188 34.3461 15.804C34.5381 15.42 34.6461 15.18 34.6701 15.084C34.2381 14.868 33.9141 14.568 33.6981 14.184C33.4821 13.776 33.3741 13.38 33.3741 12.996C33.3741 12.612 33.4581 12.264 33.6261 11.952C33.8181 11.64 34.0941 11.4 34.4541 11.232C34.6701 11.16 34.8741 11.124 35.0661 11.124C35.5941 11.124 36.0261 11.292 36.3621 11.628C36.3381 11.724 36.3141 11.832 36.2901 11.952C36.2901 12.048 36.2901 12.156 36.2901 12.276C36.2901 13.02 36.5901 13.572 37.1901 13.932C37.7901 14.292 38.4381 14.424 39.1341 14.328C39.4701 13.848 39.8541 13.428 40.2861 13.068C40.7181 12.708 41.1861 12.528 41.6901 12.528C41.9541 12.528 42.3261 12.54 42.8061 12.564C43.3101 12.588 43.6701 12.588 43.8861 12.564C43.7421 12.66 43.5741 12.852 43.3821 13.14C43.1901 13.428 43.0101 13.728 42.8421 14.04C42.6741 14.352 42.5421 14.592 42.4461 14.76C41.7981 16.008 41.1981 17.256 40.6461 18.504C40.0941 19.728 39.6741 20.904 39.3861 22.032C39.3381 22.248 39.2901 22.452 39.2421 22.644C39.2181 22.812 39.2061 22.992 39.2061 23.184C39.2061 23.904 39.4461 24.264 39.9261 24.264C40.2621 24.264 40.7421 24.024 41.3661 23.544C41.9181 23.088 42.4101 22.584 42.8421 22.032C43.3221 21.408 43.7781 20.736 44.2101 20.016C44.6421 19.296 45.0141 18.636 45.3261 18.036C45.4461 17.844 45.5301 17.748 45.5781 17.748C45.7221 17.748 45.7941 17.964 45.7941 18.396C45.7941 18.564 45.7701 18.768 45.7221 19.008C45.6741 19.248 45.5901 19.476 45.4701 19.692C45.1101 20.292 44.7021 20.952 44.2461 21.672C43.7901 22.368 43.3221 23.052 42.8421 23.724C42.5301 24.156 42.0861 24.648 41.5101 25.2C40.9581 25.752 40.3581 26.232 39.7101 26.64C39.0861 27.048 38.4861 27.252 37.9101 27.252ZM55.0087 27.216C54.2647 27.216 53.7487 26.928 53.4607 26.352C53.1967 25.776 53.0647 25.068 53.0647 24.228C53.0647 23.46 53.1367 22.704 53.2807 21.96C53.3527 21.624 53.4247 21.288 53.4967 20.952C53.5927 20.592 53.7007 20.22 53.8207 19.836C53.4127 20.58 52.9807 21.3 52.5247 21.996C52.0927 22.692 51.6487 23.304 51.1927 23.832C50.4247 24.768 49.6087 25.548 48.7447 26.172C47.9047 26.796 47.0647 27.108 46.2247 27.108C45.5527 27.108 44.9767 26.868 44.4967 26.388C44.0407 25.884 43.8127 25.02 43.8127 23.796C43.8127 22.548 44.0287 21.264 44.4607 19.944C44.8927 18.624 45.4927 17.4 46.2607 16.272C47.0527 15.12 47.9767 14.196 49.0327 13.5C50.1127 12.804 51.2887 12.456 52.5607 12.456C52.9687 12.456 53.4127 12.516 53.8927 12.636C54.3727 12.756 54.8167 12.984 55.2247 13.32C55.6327 13.632 55.9087 14.076 56.0527 14.652C56.0767 14.604 56.1007 14.568 56.1247 14.544C56.1727 14.52 56.2087 14.496 56.2327 14.472C56.5687 13.944 56.9527 13.5 57.3847 13.14C57.8167 12.78 58.2967 12.6 58.8247 12.6C59.0887 12.6 59.4607 12.612 59.9407 12.636C60.4207 12.66 60.7687 12.66 60.9847 12.636C60.8647 12.732 60.6967 12.924 60.4807 13.212C60.2887 13.5 60.1087 13.8 59.9407 14.112C59.7727 14.4 59.6407 14.628 59.5447 14.796C58.8967 16.044 58.3087 17.28 57.7807 18.504C57.2527 19.728 56.8447 20.904 56.5567 22.032C56.4847 22.272 56.4367 22.5 56.4127 22.716C56.3887 22.908 56.3767 23.1 56.3767 23.292C56.3767 23.916 56.5807 24.228 56.9887 24.228C57.3727 24.228 57.8527 23.988 58.4287 23.508C59.2687 22.836 60.0007 21.996 60.6247 20.988C61.2727 19.98 61.8367 19.008 62.3167 18.072C62.4127 17.904 62.4967 17.82 62.5687 17.82C62.7127 17.82 62.7847 18.024 62.7847 18.432C62.7847 18.624 62.7487 18.84 62.6767 19.08C62.6287 19.32 62.5447 19.548 62.4247 19.764C62.0887 20.34 61.6447 21.048 61.0927 21.888C60.5647 22.728 59.9647 23.556 59.2927 24.372C58.6207 25.164 57.9127 25.836 57.1687 26.388C56.4487 26.94 55.7287 27.216 55.0087 27.216ZM47.8447 24.084C47.9167 24.108 48.0247 24.12 48.1687 24.12C48.6247 24.12 49.1167 23.928 49.6447 23.544C50.1727 23.16 50.7007 22.668 51.2287 22.068C51.7567 21.444 52.2247 20.82 52.6327 20.196C53.6887 18.516 54.4687 17.256 54.9727 16.416C55.4767 15.576 55.7647 15.096 55.8367 14.976C55.7167 14.568 55.5007 14.268 55.1887 14.076C54.9007 13.884 54.5527 13.788 54.1447 13.788C53.6167 13.788 53.0527 13.932 52.4527 14.22C51.8767 14.508 51.3847 14.856 50.9767 15.264C50.3527 15.888 49.7527 16.692 49.1767 17.676C48.6247 18.66 48.1687 19.632 47.8087 20.592C47.4727 21.552 47.3047 22.356 47.3047 23.004C47.3047 23.604 47.4847 23.964 47.8447 24.084ZM63.9603 27.216C63.2643 27.216 62.7363 26.94 62.3763 26.388C62.2083 26.124 62.0883 25.812 62.0163 25.452C61.9443 25.092 61.9083 24.72 61.9083 24.336C61.9083 23.952 61.9323 23.568 61.9803 23.184C62.0283 22.776 62.0883 22.38 62.1603 21.996C62.2803 21.372 62.4123 20.808 62.5563 20.304C62.7243 19.776 62.8923 19.272 63.0603 18.792V18.756C62.8683 19.116 62.6283 19.512 62.3403 19.944C62.0523 20.352 61.8483 20.652 61.7283 20.844C61.5603 21.108 61.4283 21.24 61.3323 21.24C61.2363 21.24 61.1883 21.132 61.1883 20.916C61.1883 20.436 61.3323 19.908 61.6203 19.332C61.8123 18.948 62.0763 18.456 62.4123 17.856C62.7483 17.232 63.0963 16.56 63.4563 15.84C63.8163 15.12 64.1283 14.424 64.3923 13.752H61.9803C61.8603 13.752 61.8363 13.656 61.9083 13.464C61.9803 13.272 62.0883 13.092 62.2323 12.924C62.3763 12.732 62.4843 12.636 62.5563 12.636H65.2923C65.5563 12.012 65.8563 11.34 66.1923 10.62C66.5523 9.9 66.9483 9.228 67.3803 8.604C67.8363 7.956 68.3283 7.428 68.8563 7.02C69.3843 6.612 69.9483 6.408 70.5483 6.408C70.8123 6.408 71.1363 6.408 71.5203 6.408C71.9283 6.408 72.1803 6.396 72.2763 6.372C71.7723 6.708 71.1843 7.38 70.5123 8.388C69.8403 9.372 69.1083 10.788 68.3163 12.636H71.9523C72.0243 12.636 72.0003 12.732 71.8803 12.924C71.7603 13.092 71.6043 13.272 71.4123 13.464C71.2443 13.656 71.0763 13.752 70.9083 13.752H67.8123C67.5003 14.544 67.1523 15.408 66.7683 16.344C66.4083 17.28 66.0723 18.204 65.7603 19.116C65.4723 20.004 65.2563 20.82 65.1123 21.564C65.0163 22.02 64.9683 22.44 64.9683 22.824C64.9683 23.736 65.2563 24.192 65.8323 24.192C66.2163 24.192 66.6723 24 67.2003 23.616C67.7283 23.232 68.2563 22.704 68.7843 22.032C69.2643 21.408 69.7203 20.736 70.1523 20.016C70.6083 19.296 70.9923 18.636 71.3043 18.036C71.4003 17.868 71.4843 17.784 71.5563 17.784C71.7003 17.784 71.7723 17.976 71.7723 18.36C71.7723 18.552 71.7363 18.78 71.6643 19.044C71.6163 19.284 71.5203 19.524 71.3763 19.764C71.0403 20.34 70.6443 20.976 70.1883 21.672C69.7323 22.344 69.2643 23.016 68.7843 23.688C68.4483 24.12 68.0043 24.612 67.4523 25.164C66.9243 25.716 66.3483 26.196 65.7243 26.604C65.1243 27.012 64.5363 27.216 63.9603 27.216ZM74.6892 27.36C73.5612 27.36 72.6492 27.156 71.9532 26.748C71.2572 26.316 70.7532 25.752 70.4412 25.056C70.1532 24.336 70.0092 23.568 70.0092 22.752C70.0092 21.936 70.1292 21.108 70.3692 20.268C70.6092 19.428 70.9332 18.636 71.3412 17.892C72.1812 16.38 73.2132 15.132 74.4372 14.148C75.6852 13.164 77.2092 12.672 79.0092 12.672C80.1372 12.672 81.0132 12.96 81.6372 13.536C82.2612 14.112 82.5732 14.784 82.5732 15.552C82.5732 16.272 82.3572 16.932 81.9252 17.532C81.5172 18.132 80.9652 18.432 80.2692 18.432C79.8852 18.432 79.5492 18.324 79.2612 18.108C78.9732 17.892 78.8292 17.556 78.8292 17.1C78.8292 17.028 78.8292 16.956 78.8292 16.884C78.8532 16.788 78.8772 16.692 78.9012 16.596C79.0452 16.572 79.2492 16.536 79.5132 16.488C79.8012 16.416 80.0292 16.248 80.1972 15.984C80.5092 15.552 80.6652 15.12 80.6652 14.688C80.6652 14.424 80.5812 14.208 80.4132 14.04C80.2692 13.848 80.0172 13.752 79.6572 13.752C79.0092 13.752 78.3492 13.992 77.6772 14.472C77.0052 14.928 76.3692 15.54 75.7692 16.308C75.1932 17.076 74.6892 17.916 74.2572 18.828C73.5852 20.292 73.2492 21.636 73.2492 22.86C73.2492 23.748 73.4532 24.48 73.8612 25.056C74.2692 25.608 74.9172 25.884 75.8052 25.884C76.9332 25.884 77.9892 25.5 78.9732 24.732C79.9812 23.94 80.8812 23.028 81.6732 21.996C82.2012 21.324 82.6692 20.64 83.0772 19.944C83.5092 19.248 83.8692 18.612 84.1572 18.036C84.2532 17.868 84.3372 17.784 84.4092 17.784C84.5532 17.784 84.6252 17.988 84.6252 18.396C84.6252 18.588 84.5892 18.816 84.5172 19.08C84.4692 19.32 84.3852 19.548 84.2652 19.764C83.8572 20.436 83.4372 21.108 83.0052 21.78C82.5972 22.452 82.1532 23.088 81.6732 23.688C80.8572 24.744 79.8972 25.62 78.7932 26.316C77.6892 27.012 76.3212 27.36 74.6892 27.36ZM92.5595 27.216C91.7435 27.216 91.1795 26.976 90.8675 26.496C90.5795 25.992 90.4355 25.416 90.4355 24.768C90.4355 24.072 90.5435 23.268 90.7595 22.356C90.9995 21.42 91.2875 20.46 91.6235 19.476C91.9835 18.468 92.3435 17.532 92.7035 16.668C92.8235 16.38 92.9315 16.068 93.0275 15.732C93.1475 15.396 93.2075 15.096 93.2075 14.832C93.2075 14.352 92.9915 14.112 92.5595 14.112C92.3915 14.112 92.1995 14.148 91.9835 14.22C91.7675 14.268 91.5155 14.376 91.2275 14.544C90.7235 14.784 90.2435 15.12 89.7875 15.552C89.3315 15.96 89.0195 16.272 88.8515 16.488C88.5395 16.872 88.2395 17.304 87.9515 17.784C87.6635 18.24 87.4115 18.708 87.1955 19.188C86.7155 20.22 86.3315 21.204 86.0435 22.14C85.7795 23.052 85.5275 23.832 85.2875 24.48C85.1435 24.888 84.9995 25.308 84.8555 25.74C84.7115 26.172 84.5795 26.592 84.4595 27H80.9675C80.9675 27 81.0515 26.7 81.2195 26.1C81.3875 25.5 81.5915 24.9 81.8315 24.3C82.9355 21.444 83.9795 18.528 84.9635 15.552C85.9475 12.576 87.1355 9.72 88.5275 6.984C89.1515 5.76 89.8235 4.632 90.5435 3.6C91.2875 2.568 92.0675 1.752 92.8835 1.152C93.7235 0.527999 94.5995 0.215999 95.5115 0.215999C96.2315 0.215999 96.7235 0.383999 96.9875 0.719999C97.2755 1.032 97.4195 1.428 97.4195 1.908C97.4195 2.436 97.3115 2.988 97.0955 3.564C96.8795 4.14 96.6635 4.632 96.4475 5.04C96.0155 5.904 95.4515 6.876 94.7555 7.956C94.0595 9.036 93.3275 10.044 92.5595 10.98C92.3915 11.196 92.1035 11.544 91.6955 12.024C91.2875 12.48 90.8675 12.948 90.4355 13.428C90.0275 13.908 89.7035 14.28 89.4635 14.544C90.2555 13.968 90.9395 13.524 91.5155 13.212C92.0915 12.9 92.5835 12.684 92.9915 12.564C93.6875 12.372 94.2635 12.276 94.7195 12.276C96.0875 12.276 96.7715 12.876 96.7715 14.076C96.7715 14.58 96.6275 15.18 96.3395 15.876C96.1955 16.26 95.9915 16.776 95.7275 17.424C95.4635 18.072 95.1875 18.768 94.8995 19.512C94.6355 20.232 94.4075 20.928 94.2155 21.6C94.0475 22.272 93.9635 22.824 93.9635 23.256C93.9635 23.52 93.9995 23.76 94.0715 23.976C94.1675 24.168 94.3355 24.264 94.5755 24.264C94.7435 24.264 94.9835 24.18 95.2955 24.012C95.9675 23.628 96.5915 23.088 97.1675 22.392C97.7675 21.696 98.2955 20.952 98.7515 20.16C99.2315 19.368 99.6395 18.648 99.9755 18C100.048 17.832 100.132 17.748 100.228 17.748C100.348 17.748 100.408 17.952 100.408 18.36C100.408 18.552 100.384 18.78 100.336 19.044C100.288 19.284 100.192 19.524 100.048 19.764C99.7115 20.34 99.2675 21.048 98.7155 21.888C98.1875 22.728 97.5875 23.556 96.9155 24.372C96.2435 25.164 95.5355 25.836 94.7915 26.388C94.0475 26.94 93.3035 27.216 92.5595 27.216ZM88.4195 14.292C89.6195 12.876 90.8315 11.364 92.0555 9.756C93.3035 8.124 94.3355 6.468 95.1515 4.788C95.1995 4.668 95.3075 4.428 95.4755 4.068C95.6435 3.708 95.7995 3.312 95.9435 2.88C96.0875 2.424 96.1595 2.04 96.1595 1.728C96.1595 1.32 96.0035 1.116 95.6915 1.116C95.3795 1.116 95.0075 1.332 94.5755 1.764C94.1675 2.196 93.7475 2.772 93.3155 3.492C92.7635 4.404 92.1995 5.46 91.6235 6.66C91.0475 7.836 90.4835 9.084 89.9315 10.404C89.4035 11.724 88.8995 13.02 88.4195 14.292ZM99.8847 34.236C99.2847 34.236 98.6487 34.14 97.9767 33.948C97.3287 33.78 96.7887 33.48 96.3567 33.048C95.9007 32.616 95.6727 32.04 95.6727 31.32C95.6727 30.816 95.8287 30.348 96.1407 29.916C96.4527 29.484 96.8847 29.268 97.4367 29.268C97.7727 29.268 98.0847 29.352 98.3727 29.52C98.6607 29.712 98.8527 29.94 98.9487 30.204C98.9007 30.228 98.8287 30.3 98.7327 30.42C98.6367 30.54 98.5767 30.624 98.5527 30.672C98.3847 31.008 98.3007 31.356 98.3007 31.716C98.3007 32.172 98.4567 32.532 98.7687 32.796C99.1047 33.084 99.5247 33.228 100.029 33.228C100.677 33.228 101.349 32.988 102.045 32.508C102.813 31.956 103.413 31.236 103.845 30.348C104.301 29.484 104.661 28.704 104.925 28.008L106.977 22.536C106.545 23.064 106.089 23.604 105.609 24.156C105.153 24.684 104.865 25.008 104.745 25.128C103.833 26.04 103.017 26.616 102.297 26.856C101.577 27.096 100.941 27.216 100.389 27.216C99.8127 27.216 99.3207 26.964 98.9127 26.46C98.5287 25.956 98.3367 25.224 98.3367 24.264C98.3367 23.784 98.4087 23.172 98.5527 22.428C98.6967 21.684 98.9007 20.892 99.1647 20.052C99.4287 19.188 99.7287 18.348 100.065 17.532C100.425 16.692 100.809 15.948 101.217 15.3C101.841 14.316 102.537 13.68 103.305 13.392C104.073 13.104 105.045 12.96 106.221 12.96C106.317 12.96 106.365 13.008 106.365 13.104C106.365 13.2 106.293 13.32 106.149 13.464C105.813 13.752 105.405 14.256 104.925 14.976C104.445 15.696 103.977 16.488 103.521 17.352C103.089 18.216 102.729 19.044 102.441 19.836C102.249 20.388 102.057 21.036 101.865 21.78C101.697 22.524 101.613 23.172 101.613 23.724C101.613 24.108 101.661 24.42 101.757 24.66C101.877 24.876 102.057 24.984 102.297 24.984C102.681 24.984 103.209 24.696 103.881 24.12C104.889 23.28 105.801 22.248 106.617 21.024C107.433 19.8 108.129 18.528 108.705 17.208C109.041 16.44 109.317 15.792 109.533 15.264C109.749 14.712 109.989 14.268 110.253 13.932C110.517 13.596 110.889 13.356 111.369 13.212C111.849 13.044 112.497 12.96 113.313 12.96H114.789C114.333 13.248 113.877 13.788 113.421 14.58C112.965 15.348 112.533 16.26 112.125 17.316C111.813 18.084 111.489 18.924 111.153 19.836C110.841 20.748 110.517 21.672 110.181 22.608C109.893 23.472 109.581 24.42 109.245 25.452C108.909 26.46 108.525 27.444 108.093 28.404C107.661 29.388 107.157 30.24 106.581 30.96C105.765 31.968 104.769 32.76 103.593 33.336C102.417 33.936 101.181 34.236 99.8847 34.236ZM124.927 27C125.455 25.656 126.055 24.168 126.727 22.536C127.423 20.88 128.143 19.188 128.887 17.46C129.631 15.732 130.363 14.052 131.083 12.42C131.827 10.788 132.499 9.3 133.099 7.956C133.723 6.588 134.239 5.46 134.647 4.572C135.055 3.684 135.319 3.132 135.439 2.916C134.383 2.892 133.303 3 132.199 3.24C131.095 3.456 130.063 3.768 129.103 4.176C128.143 4.584 127.327 5.052 126.655 5.58C126.007 6.108 125.587 6.66 125.395 7.236C125.371 7.308 125.323 7.344 125.251 7.344C125.059 7.344 124.963 7.188 124.963 6.876C124.963 6.828 124.963 6.78 124.963 6.732C124.987 6.66 125.011 6.588 125.035 6.516C125.251 5.892 125.515 5.34 125.827 4.86C126.163 4.38 126.487 3.972 126.799 3.636C127.591 2.82 128.479 2.328 129.463 2.16C130.447 1.968 131.491 1.872 132.595 1.872H138.679C138.631 1.968 138.535 2.16 138.391 2.448C138.247 2.736 138.175 3.216 138.175 3.888C138.175 4.584 138.307 5.532 138.571 6.732C138.859 7.932 139.411 9.48 140.227 11.376C140.539 12.12 140.827 12.816 141.091 13.464C141.355 14.088 141.583 14.676 141.775 15.228C142.135 16.188 142.399 16.956 142.567 17.532C142.735 18.084 142.843 18.516 142.891 18.828C142.963 19.14 142.999 19.416 142.999 19.656C143.023 19.872 143.047 20.112 143.071 20.376C143.359 19.656 143.755 18.708 144.259 17.532C144.763 16.356 145.315 15.06 145.915 13.644C146.539 12.228 147.175 10.788 147.823 9.324C148.471 7.86 149.083 6.48 149.659 5.184C150.235 3.888 150.715 2.784 151.099 1.872C151.171 1.752 151.423 1.692 151.855 1.692C152.287 1.692 152.779 1.728 153.331 1.8C153.883 1.872 154.255 1.908 154.447 1.908C153.775 2.364 153.055 3.24 152.287 4.536C151.543 5.832 150.727 7.392 149.839 9.216C149.095 10.752 148.351 12.372 147.607 14.076C146.887 15.756 146.227 17.4 145.627 19.008C145.051 20.592 144.583 22.032 144.223 23.328C143.887 24.624 143.719 25.632 143.719 26.352C143.719 26.472 143.719 26.592 143.719 26.712C143.743 26.808 143.767 26.904 143.791 27H141.523C141.499 26.28 141.415 25.608 141.271 24.984C141.127 24.36 140.899 23.652 140.587 22.86C140.275 22.044 139.843 21.036 139.291 19.836C138.763 18.612 138.103 17.064 137.311 15.192C136.615 13.56 136.099 12.132 135.763 10.908C135.451 9.684 135.259 8.64 135.187 7.776C134.803 8.64 134.347 9.672 133.819 10.872C133.315 12.048 132.787 13.296 132.235 14.616C131.683 15.936 131.155 17.256 130.651 18.576C130.147 19.896 129.691 21.132 129.283 22.284C128.899 23.436 128.611 24.432 128.419 25.272C128.227 26.088 128.167 26.664 128.239 27H124.927ZM156.784 9.72C156.16 9.504 155.848 9.096 155.848 8.496C155.848 7.944 156.064 7.38 156.496 6.804C156.952 6.204 157.444 5.82 157.972 5.652C158.092 5.604 158.188 5.58 158.26 5.58C158.356 5.58 158.452 5.58 158.548 5.58C158.956 5.58 159.292 5.7 159.556 5.94C159.82 6.18 159.952 6.456 159.952 6.768C159.952 7.2 159.724 7.56 159.268 7.848C158.908 7.8 158.56 7.884 158.224 8.1C157.888 8.316 157.588 8.58 157.324 8.892C157.084 9.204 156.904 9.48 156.784 9.72ZM150.592 27.216C150.28 27.216 149.98 27.144 149.692 27C149.404 26.88 149.164 26.628 148.972 26.244C148.708 25.668 148.576 24.984 148.576 24.192C148.576 23.328 148.708 22.368 148.972 21.312C149.236 20.232 149.584 19.128 150.016 18C150.184 17.592 150.4 17.088 150.664 16.488C150.928 15.888 151.24 15.288 151.6 14.688C151.96 14.088 152.368 13.596 152.824 13.212C153.304 12.804 153.82 12.6 154.372 12.6C154.636 12.6 155.008 12.612 155.488 12.636C155.968 12.66 156.316 12.66 156.532 12.636C156.388 12.732 156.22 12.924 156.028 13.212C155.836 13.5 155.656 13.8 155.488 14.112C155.32 14.4 155.188 14.628 155.092 14.796C154.468 16.044 153.88 17.28 153.328 18.504C152.776 19.728 152.356 20.904 152.068 22.032C152.02 22.224 151.984 22.416 151.96 22.608C151.936 22.8 151.924 22.98 151.924 23.148C151.924 23.844 152.152 24.192 152.608 24.192C152.8 24.192 153.004 24.144 153.22 24.048C153.46 23.928 153.736 23.748 154.048 23.508C154.6 23.076 155.08 22.584 155.488 22.032C155.968 21.408 156.424 20.748 156.856 20.052C157.288 19.332 157.66 18.672 157.972 18.072C158.092 17.88 158.176 17.784 158.224 17.784C158.368 17.784 158.44 17.988 158.44 18.396C158.44 18.588 158.404 18.816 158.332 19.08C158.284 19.32 158.2 19.548 158.08 19.764C157.744 20.34 157.348 20.976 156.892 21.672C156.436 22.368 155.968 23.04 155.488 23.688C155.152 24.144 154.708 24.648 154.156 25.2C153.604 25.752 153.016 26.232 152.392 26.64C151.768 27.024 151.168 27.216 150.592 27.216ZM159.62 27.36C158.516 27.36 157.688 27.168 157.136 26.784C156.608 26.4 156.344 25.668 156.344 24.588C156.344 23.796 156.488 22.812 156.776 21.636C156.968 20.844 157.244 19.824 157.604 18.576C157.988 17.328 158.42 16.008 158.9 14.616C159.404 13.2 159.92 11.832 160.448 10.512C160.976 9.168 161.492 8.016 161.996 7.056C162.62 5.856 163.112 5.016 163.472 4.536C163.832 4.032 164.228 3.732 164.66 3.636C164.852 3.588 165.08 3.552 165.344 3.528C165.632 3.504 165.92 3.492 166.208 3.492C166.472 3.492 166.784 3.492 167.144 3.492C167.528 3.492 167.768 3.48 167.864 3.456C167.408 3.792 166.844 4.512 166.172 5.616C165.5 6.696 164.804 8.004 164.084 9.54C163.364 11.076 162.68 12.696 162.032 14.4C161.384 16.104 160.856 17.748 160.448 19.332C160.832 18.66 161.228 18.012 161.636 17.388C162.044 16.764 162.44 16.212 162.824 15.732C163.592 14.796 164.408 14.016 165.272 13.392C166.136 12.768 166.976 12.456 167.792 12.456C168.488 12.456 169.064 12.708 169.52 13.212C170 13.716 170.24 14.568 170.24 15.768C170.24 17.04 169.964 18.324 169.412 19.62C168.86 20.892 168.152 22.056 167.288 23.112C167.312 23.496 167.432 23.82 167.648 24.084C167.864 24.324 168.14 24.444 168.476 24.444C168.812 24.444 169.148 24.324 169.484 24.084C169.844 23.844 170.18 23.532 170.492 23.148C170.828 22.764 171.14 22.392 171.428 22.032C171.908 21.408 172.364 20.736 172.796 20.016C173.252 19.296 173.636 18.636 173.948 18.036C174.068 17.844 174.152 17.748 174.2 17.748C174.344 17.748 174.416 17.952 174.416 18.36C174.416 18.552 174.38 18.768 174.308 19.008C174.26 19.248 174.176 19.488 174.056 19.728C173.768 20.208 173.432 20.772 173.048 21.42C172.664 22.068 172.232 22.704 171.752 23.328C171.296 23.952 170.792 24.492 170.24 24.948C169.712 25.38 169.136 25.656 168.512 25.776C168.464 25.776 168.404 25.788 168.332 25.812C168.26 25.812 168.2 25.812 168.152 25.812C167.744 25.812 167.348 25.692 166.964 25.452C166.58 25.212 166.304 24.864 166.136 24.408C165.848 24.696 165.56 24.96 165.272 25.2C164.984 25.44 164.696 25.668 164.408 25.884C163.736 26.34 163.016 26.7 162.248 26.964C161.48 27.228 160.604 27.36 159.62 27.36ZM160.448 26.064C160.856 26.064 161.324 25.86 161.852 25.452C162.404 25.02 162.932 24.492 163.436 23.868C163.964 23.22 164.408 22.596 164.768 21.996C165.32 21.06 165.788 20.088 166.172 19.08C166.556 18.072 166.748 17.232 166.748 16.56C166.748 15.96 166.568 15.612 166.208 15.516C166.16 15.492 166.1 15.48 166.028 15.48C165.956 15.48 165.896 15.48 165.848 15.48C165.368 15.48 164.828 15.72 164.228 16.2C163.796 16.536 163.304 17.028 162.752 17.676C162.2 18.324 161.66 19.056 161.132 19.872C160.628 20.664 160.208 21.468 159.872 22.284C159.56 23.1 159.404 23.856 159.404 24.552C159.404 24.648 159.404 24.756 159.404 24.876C159.428 24.996 159.452 25.116 159.476 25.236C159.596 25.788 159.92 26.064 160.448 26.064Z" fill="#321517"/>
</svg>
